<svg width="132" height="102" viewBox="0 0 132 102" fill="none" xmlns="http://www.w3.org/2000/svg">
<path d="M81.7412 20.8472C82.3302 21.4362 83.1395 23.7854 83.6296 23.9C86.5722 22.0162 89.8094 21.2855 93.2444 22.2252C94.0245 22.4388 96.005 23.8978 96.2635 23.8753C96.6951 23.8393 100.604 20.8494 101.425 20.4201C100.953 18.6756 101.077 16.9603 100.899 15.2069C100.744 13.6984 99.7749 12.8509 100.814 11.2234C101.625 9.95322 105.047 8.81347 106.582 8.42007C110.35 7.45341 115.271 7.1207 119.052 6.9004C120.774 6.80148 124.683 6.89141 126.149 7.44892C128.156 8.21325 129.085 10.4028 129.48 12.3856C130.344 16.7153 130.101 21.3755 130.481 25.667C130.874 30.1203 131.789 34.9603 131.982 39.3934C132.239 45.2158 129.676 45.4991 125.099 46.4792C124.789 46.5444 124.42 46.7085 123.964 46.7917C121.439 47.2548 111.494 48.4103 109.379 48.0686C108.985 48.0056 106.989 47.1716 106.676 46.9581C104.732 45.616 105.597 41.075 104.444 38.9978C101.189 39.6047 98.5115 38.3301 96.6412 35.6909C94.6179 37.9007 91.9428 39.5553 88.8517 38.8674C88.863 39.7306 88.9124 40.5804 88.7146 41.4346C88.609 41.891 87.449 45.1124 87.0016 45.6632C86.4553 46.3376 85.5067 46.4208 84.9402 46.8007C83.416 47.819 83.5037 47.9045 81.5704 48.9183C80.9926 49.2218 77.4025 51.4159 77.407 51.7464C78.0117 52.3915 78.7401 53.1491 79.4392 53.6437C80.3767 54.3024 82.1998 55.4893 82.8248 55.8513C83.7824 56.4043 85.0121 57.4474 86.1676 58.3376C88.5572 60.1787 88.9934 60.3473 89.3553 63.0562C89.4407 63.6969 95.452 65.8932 96.5872 66.5901C98.9454 68.0423 100.888 69.9622 99.4872 72.8801C99.2624 73.3499 98.4373 73.9524 98.0574 74.6291C94.6269 80.7639 89.8072 89.9696 84.0657 94.3488C79.4145 97.8984 74.4688 93.2967 74.8533 88.16C73.1065 88.6253 70.5573 89.1806 68.7993 88.6523C68.316 88.5062 66.6097 87.3911 65.969 87.0292C63.4872 85.6242 60.2366 83.7178 57.5771 82.3825C54.0432 80.6066 54.0185 80.1907 51.4985 83.4099C49.8709 85.4893 47.8342 87.8655 46.4112 90.0888C45.2175 91.9546 45.1163 94.0273 42.911 95.1738C42.2141 95.538 39.9144 95.9674 39.6221 96.1742C39.159 96.5001 38.7252 100.646 37.1111 101.138C36.4209 101.349 34.1999 101.261 33.3591 101.192C26.941 100.668 16.7147 97.3094 11.5892 93.3844C8.14295 90.7429 3.23325 85.9232 7.59668 81.8003C9.86944 79.6512 17.1958 79.9659 17.6139 79.5725C17.6993 79.4915 17.5397 77.7268 17.6319 77.2053C17.7308 76.6433 21.6514 68.6313 22.2538 67.5163C22.9395 66.2484 24.4681 65.0749 25.1673 63.7531C25.3179 63.4698 26.2284 61.1206 26.1991 60.9745C26.0215 60.0821 24.594 60.7722 24.1309 60.7475C21.7907 60.6216 19.4933 60.3788 17.4003 59.2705C15.847 58.4477 13.9833 55.9951 13.1538 54.4507C12.893 54.2731 10.5349 56.1188 9.87843 56.4155C7.66187 57.4159 4.74618 57.861 2.80837 56.0558C-2.85891 50.782 0.472669 39.2091 9.02418 41.0907C8.28008 37.8962 6.34228 35.7831 9.33665 32.9776C11.2722 31.1634 15.9953 29.3223 18.5738 28.5399C20.4262 27.9779 22.3685 28.4253 24.2906 27.4137C24.0118 26.1615 23.0924 25.0443 23.0362 23.7157C22.8833 20.0446 22.2066 16.1735 22.092 12.6014C22.0717 11.9809 22.3707 9.58005 22.5326 8.96184C22.7012 8.30991 23.4341 7.32977 23.9623 6.89365C25.0684 5.98545 29.7668 3.06301 31.0526 2.53472C32.3385 2.00644 37.0122 0.72281 38.4621 0.40359C42.5783 -0.504615 53.2429 0.111346 56.842 2.33914C59.5284 4.00044 59.7038 9.71718 60.2973 12.5587C60.4366 13.2286 60.639 13.8603 60.7626 14.6539C61.0301 16.3646 60.0949 18.9836 62.4621 19.9502C62.8802 20.1211 67.9361 19.5366 68.9432 19.4354C71.2272 19.2016 73.4932 18.6419 75.9683 18.7992C77.3958 18.8914 80.7498 19.8446 81.7457 20.8427L81.7412 20.8472Z" fill="#383836"/>
<path d="M111.521 55.6287C112.155 56.2829 112.998 56.4852 113.576 57.544C114.425 59.1064 115.32 65.6887 112.841 65.9135C110.419 66.1338 112.335 60.9408 111.346 58.8209C110.871 57.8026 107.537 56.1885 108.85 54.5789C110.32 52.7782 111.087 55.1791 111.521 55.6265V55.6287Z" fill="#393937"/>
<path d="M99.5523 55.4556C102.583 54.4035 104.181 58.4927 104.714 60.6845C105.062 62.1188 106.067 65.6797 103.641 65.2773C101.686 64.9535 102.34 59.1739 100.915 58.1218C100.31 57.6744 99.0937 57.825 98.8487 56.7033C98.7475 56.2447 99.1162 55.6062 99.5523 55.4534V55.4556Z" fill="#393937"/>
<path d="M115.781 9.92849L124.593 9.94198C125.879 10.2612 126.74 12.1945 126.87 13.4084C127.5 19.2466 127.655 24.9049 128.082 30.7048C128.253 33.0293 128.831 35.7067 128.914 38.0761C129.04 41.6954 129.755 42.5294 125.989 43.4174C124.364 43.7996 121.536 44.3256 119.816 44.5527C119.131 44.6448 114.495 44.9303 114.268 44.7707C113.89 43.4893 113.845 41.6909 113.771 40.2454C113.351 31.8648 112.128 21.7666 110.422 13.6085C110.296 13.0083 109.988 10.9469 110.197 10.6029C111.438 9.98694 112.56 10.2252 113.879 10.1353C113.949 10.1308 114.016 10.1173 114.079 10.0993C114.509 9.97795 115.334 9.924 115.781 9.92625V9.92849Z" fill="#FEFEFE"/>
<path d="M44.217 21.9892C45.0533 21.9892 46.1413 22.0229 46.4201 22.0724C48.1803 22.3916 49.3021 23.4437 50.1653 24.1496C52.6381 26.1728 53.942 29.8101 53.715 32.5077C53.3733 36.5609 52.0267 38.2245 48.8907 39.4609C45.4422 40.8187 43.6753 39.5913 41.6138 37.9142C41.1507 37.5366 41.8678 37.7929 42.2095 37.9412C42.4613 38.0514 42.9829 38.1953 43.0975 38.2155C43.8259 38.3526 43.9001 38.3121 44.6239 38.2559C45.2039 38.211 45.8424 37.9794 46.229 37.7816C49.4549 36.1405 49.084 30.8419 45.404 29.338C45.3545 29.3178 45.2331 29.2773 45.1837 29.2571L44.8285 29.1312C44.7633 29.1087 44.6959 29.0885 44.6284 29.075C44.4171 29.0345 43.9473 28.9873 43.7877 28.9918C43.5718 28.9986 43.3358 29.0233 43.2009 29.0458C42.2163 29.2121 40.8922 29.891 40.4089 30.5992C39.8558 31.4062 39.6535 32.4538 39.7592 33.5621C39.8648 34.6703 40.2965 35.9225 40.1841 37.0847C39.9615 39.3417 36.513 42.707 34.2717 42.9746C32.1653 43.2263 31.6303 42.5609 30.0095 41.7292C29.7307 41.6392 29.425 41.3223 30.0095 41.4976C35.5464 42.3429 37.2077 34.9693 32.8375 33.018C29.9083 31.7097 28.0155 33.2069 26.1968 35.3672C25.2324 32.474 25.7629 26.4965 29.7802 25.7591C34.5482 24.8824 34.9506 27.5935 37.8888 29.583C37.4325 26.8697 39.7434 23.1604 42.0949 22.3714C42.7198 22.1623 43.7494 21.9914 44.217 21.9892Z" fill="#FEFEFE"/>
<path d="M24.2862 85.2982C25.2146 85.5612 25.4147 85.5095 25.9407 85.8377C27.4514 86.9123 29.3577 87.571 31.1112 88.396C31.2169 88.4455 31.327 88.4882 31.4394 88.5196C31.8665 88.6388 32.1385 88.7489 32.424 88.9445C33.3435 89.5762 36.738 90.7002 37.6462 92.2941C37.8823 92.8246 37.5181 93.2428 37.3292 93.8834C36.9696 95.2525 36.4907 98.5908 34.9621 98.5976C32.3319 97.8804 29.1262 97.8827 26.5747 97.1656C21.8808 95.846 13.6732 92.3143 10.4068 88.6882C5.0273 82.7197 14.7635 81.7328 18.8954 82.9018C20.5185 83.3604 22.5889 84.8171 24.2907 85.2982H24.2862Z" fill="#FEFEFE"/>
<path d="M84.6546 70.7872C84.7491 70.6118 84.9244 70.3938 85.1649 70.0251C85.7247 69.1753 87.2286 65.5942 88.0357 65.5762C90.3242 66.988 93.042 67.7051 95.3036 69.1371C95.897 69.5125 97.1694 70.2431 96.9626 71.0165C96.8952 71.266 95.2946 74.2626 95.0113 74.7684C91.437 81.1393 86.9724 88.4297 81.114 92.611C80.7745 92.8538 80.6936 92.8741 80.3384 92.8763C79.909 92.7909 79.7674 92.7234 79.129 92.3166C77.389 91.206 77.3688 86.9707 77.7127 85.1408C77.9218 84.0236 78.268 84.0483 78.6299 83.2457C78.9581 82.5151 79.2009 82.0093 79.4325 81.1641C80.1204 78.6305 83.0158 75.1843 84.0746 72.2619C84.3714 71.7808 84.3354 71.3469 84.6546 70.7894V70.7872Z" fill="#FEFEFE"/>
<path d="M104.428 21.3755C104.024 18.4036 103.794 15.407 103.165 12.4845L107.288 11.1986C107.679 14.3459 108.466 17.4369 108.88 20.5842C109.785 27.4969 111.186 35.4257 111.44 42.1945C111.469 42.9588 111.683 45.3035 110.91 45.5216C109.347 45.9667 108.459 44.5796 108.081 43.3252C106.247 37.2151 105.31 27.8228 104.428 21.3777V21.3755Z" fill="#FEFEFE"/>
<path d="M85.3583 29.909C85.3156 29.7561 85.2481 29.574 85.2189 29.4234C85.1357 28.9918 84.9446 28.5871 84.6636 28.2477C83.9825 27.4227 83.9375 27.2855 85.057 26.3481C89.733 22.441 96.8457 24.8577 95.4519 31.64C95.0495 33.5958 92.3317 36.48 90.1803 36.1046C87.0848 35.565 87.2421 33.6317 86.0462 31.3163C85.9877 31.2038 85.9046 31.1252 85.8528 31.0375C85.6348 30.6643 85.4774 30.3496 85.3583 29.909Z" fill="#FEFEFE"/>
<path d="M9.20619 43.9862C9.40627 44.2222 9.56138 44.4897 9.74347 44.7415C9.84014 44.8764 9.90983 45.0697 10.0132 45.2159C10.3414 45.6789 10.5325 45.9914 10.9304 46.4995C11.1822 46.8569 11.2384 47.2233 11.3059 47.592C11.3193 47.6685 11.3373 47.7471 11.3598 47.8213C12.1129 50.5055 11.4048 52.4747 8.80604 53.7561C3.38829 56.4313 1.73824 50.0918 3.5524 45.9577C3.96379 45.0225 4.96416 44.0873 5.99825 43.604C6.35794 43.4354 7.29537 43.3635 7.48645 43.3545C8.72062 43.3073 9.02635 43.8221 9.20844 43.9839L9.20619 43.9862Z" fill="#FDFDFD"/>
<path d="M101.884 23.601L103.794 36.6396C102.81 36.6598 101.519 36.5991 100.638 36.1383C100.247 35.9337 97.8507 33.1979 97.8349 32.9866C97.8169 32.755 98.334 32.202 98.3722 31.6939C98.4307 30.9139 98.4666 29.9202 98.3992 29.1514C98.1969 26.8202 96.8458 26.5527 99.3613 24.734C99.6828 24.5025 101.706 23.4144 101.884 23.601Z" fill="#FDFDFD"/>
<path d="M111.105 17.5606H110.792V19.4647H111.105V17.5606Z" fill="#2E2E2C"/>
<path d="M104.428 21.3755V22.9648H104.114C104.179 22.4118 103.857 21.4722 104.428 21.3755Z" fill="#2D2D2B"/>
</svg>
